<?xml version="1.0" encoding="UTF-8" standalone="no"?>
<!-- This is a Stata 17.0 generated SVG file (http://www.stata.com) -->

<svg version="1.1" width="1600px" height="1164px" viewBox="0 0 3960 2880" xmlns="http://www.w3.org/2000/svg" xmlns:xlink="http://www.w3.org/1999/xlink">
	<desc>Stata Graph - Graph</desc>
	<rect x="0" y="0" width="3960" height="2880" style="fill:#EAF2F3;stroke:none"/>
	<rect x="0.00" y="0.00" width="3959.88" height="2880.00" style="fill:#FFFFFF"/>
	<rect x="2.88" y="2.88" width="3954.12" height="2874.24" style="fill:none;stroke:#FFFFFF;stroke-width:5.76"/>
	<rect x="100.86" y="221.77" width="3758.16" height="2442.90" style="fill:#FFFFFF"/>
	<rect x="103.74" y="224.65" width="3752.40" height="2437.14" style="fill:none;stroke:#FFFFFF;stroke-width:5.76"/>
	<defs>
		<path id="path_ddFJngrl" d="M219.16 2513.07 L219.16 2513.07 L274.23 2513.07 L329.18 2513.07 L384.24 2513.07 L439.31 2513.07 L494.26 2513.07 L549.33 2513.07 L604.40 2513.07 L659.34 2513.07 L714.41 2513.07 L769.48 2513.07 L824.42 2513.07 L879.49 2513.19 L934.44 2513.19 L989.51 2513.32 L1044.57 2513.32 L1099.52 2513.56 L1154.59 2513.69 L1209.66 2513.94 L1264.60 2514.18 L1319.67 2514.68 L1374.74 2515.17 L1429.68 2515.67 L1484.75 2516.41 L1539.70 2517.28 L1594.77 2518.27 L1649.84 2519.50 L1704.78 2520.74 L1759.85 2522.10 L1814.92 2523.47 L1869.86 2524.83 L1924.93 2526.19 L1980.00 2527.43 L2034.95 2528.54 L2090.01 2529.53 L2144.96 2530.40 L2200.03 2531.14 L2255.10 2531.76 L2310.04 2532.25 L2365.11 2532.62 L2420.18 2532.87 L2475.12 2533.12 L2530.19 2533.37 L2585.14 2533.49 L2640.21 2533.61 L2695.28 2533.61 L2750.22 2533.74 L2805.29 2533.74 L2860.36 2533.74 L2915.30 2533.86 L2970.37 2533.86 L3025.44 2533.86 L3080.39 2533.86 L3135.45 2533.86 L3190.40 2533.86 L3245.47 2533.86 L3300.54 2533.86 L3355.48 2533.86 L3410.55 2533.86 L3410.55 2293.65 L3355.48 2293.65 L3300.54 2293.65 L3245.47 2293.53 L3190.40 2293.53 L3135.45 2293.53 L3080.39 2293.53 L3025.44 2293.53 L2970.37 2293.53 L2915.30 2293.53 L2860.36 2293.53 L2805.29 2293.53 L2750.22 2293.53 L2695.28 2293.41 L2640.21 2293.28 L2585.14 2293.28 L2530.19 2293.04 L2475.12 2292.91 L2420.18 2292.66 L2365.11 2292.42 L2310.04 2291.92 L2255.10 2291.55 L2200.03 2290.93 L2144.96 2290.19 L2090.01 2289.32 L2034.95 2288.33 L1980.00 2287.10 L1924.93 2285.86 L1869.86 2284.62 L1814.92 2283.14 L1759.85 2281.77 L1704.78 2280.41 L1649.84 2279.17 L1594.77 2278.06 L1539.70 2277.07 L1484.75 2276.20 L1429.68 2275.46 L1374.74 2274.84 L1319.67 2274.35 L1264.60 2273.98 L1209.66 2273.73 L1154.59 2273.48 L1099.52 2273.23 L1044.57 2273.11 L989.51 2272.99 L934.44 2272.99 L879.49 2272.86 L824.42 2272.86 L769.48 2272.86 L714.41 2272.86 L659.34 2272.74 L604.40 2272.74 L549.33 2272.74 L494.26 2272.74 L439.31 2272.74 L384.24 2272.74 L329.18 2272.74 L274.23 2272.74 L219.16 2272.74 L219.16 2513.07 Z" stroke-linejoin="round"/>
	</defs>
	<defs>
		<clipPath id="clipPath_fpPLwUzx">
			<use xlink:href="#path_ddFJngrl"/>
		</clipPath>
	</defs>
	<use xlink:href="#path_ddFJngrl" style="stroke:none;fill:#D7191C;fill-opacity:0.75"/>
	<use xlink:href="#path_ddFJngrl" style="fill:none;stroke:#808080;stroke-width:6.00" clip-path="url(#clipPath_fpPLwUzx)"/>
	<defs>
		<path id="path_cFVKIWgd" d="M219.16 2272.74 L219.16 2272.74 L274.23 2272.74 L329.18 2272.74 L384.24 2272.74 L439.31 2272.74 L494.26 2272.74 L549.33 2272.74 L604.40 2272.74 L659.34 2272.62 L714.41 2272.62 L769.48 2272.49 L824.42 2272.37 L879.49 2272.24 L934.44 2271.87 L989.51 2271.50 L1044.57 2271.01 L1099.52 2270.39 L1154.59 2269.52 L1209.66 2268.28 L1264.60 2266.80 L1319.67 2264.94 L1374.74 2262.59 L1429.68 2259.62 L1484.75 2256.16 L1539.70 2251.95 L1594.77 2247.00 L1649.84 2241.55 L1704.78 2235.49 L1759.85 2229.05 L1814.92 2222.37 L1869.86 2215.69 L1924.93 2209.13 L1980.00 2203.07 L2034.95 2197.62 L2090.01 2192.67 L2144.96 2188.46 L2200.03 2185.00 L2255.10 2182.03 L2310.04 2179.68 L2365.11 2177.82 L2420.18 2176.34 L2475.12 2175.22 L2530.19 2174.23 L2585.14 2173.61 L2640.21 2173.12 L2695.28 2172.75 L2750.22 2172.50 L2805.29 2172.25 L2860.36 2172.13 L2915.30 2172.00 L2970.37 2172.00 L3025.44 2171.88 L3080.39 2171.88 L3135.45 2171.88 L3190.40 2171.88 L3245.47 2171.88 L3300.54 2171.88 L3355.48 2171.88 L3410.55 2171.88 L3410.55 2091.81 L3355.48 2091.81 L3300.54 2091.81 L3245.47 2091.81 L3190.40 2091.81 L3135.45 2091.81 L3080.39 2091.81 L3025.44 2091.81 L2970.37 2091.94 L2915.30 2091.94 L2860.36 2092.06 L2805.29 2092.18 L2750.22 2092.43 L2695.28 2092.68 L2640.21 2093.05 L2585.14 2093.54 L2530.19 2094.16 L2475.12 2095.03 L2420.18 2096.27 L2365.11 2097.75 L2310.04 2099.61 L2255.10 2101.96 L2200.03 2104.93 L2144.96 2108.39 L2090.01 2112.60 L2034.95 2117.55 L1980.00 2123.00 L1924.93 2129.06 L1869.86 2135.50 L1814.92 2142.18 L1759.85 2148.99 L1704.78 2155.42 L1649.84 2161.49 L1594.77 2166.93 L1539.70 2171.88 L1484.75 2176.09 L1429.68 2179.55 L1374.74 2182.52 L1319.67 2184.87 L1264.60 2186.73 L1209.66 2188.22 L1154.59 2189.45 L1099.52 2190.32 L1044.57 2190.94 L989.51 2191.43 L934.44 2191.80 L879.49 2192.05 L824.42 2192.30 L769.48 2192.42 L714.41 2192.55 L659.34 2192.55 L604.40 2192.67 L549.33 2192.67 L494.26 2192.67 L439.31 2192.67 L384.24 2192.67 L329.18 2192.67 L274.23 2192.67 L219.16 2192.67 L219.16 2272.74 Z" stroke-linejoin="round"/>
	</defs>
	<defs>
		<clipPath id="clipPath_pbkutCNF">
			<use xlink:href="#path_cFVKIWgd"/>
		</clipPath>
	</defs>
	<use xlink:href="#path_cFVKIWgd" style="stroke:none;fill:#D7191C;fill-opacity:0.75"/>
	<use xlink:href="#path_cFVKIWgd" style="fill:none;stroke:#808080;stroke-width:6.00" clip-path="url(#clipPath_pbkutCNF)"/>
	<defs>
		<path id="path_CKGnwGRS" d="M219.16 2192.67 L219.16 2192.67 L274.23 2192.67 L329.18 2192.67 L384.24 2192.67 L439.31 2192.67 L494.26 2192.67 L549.33 2192.55 L604.40 2192.42 L659.34 2192.30 L714.41 2192.05 L769.48 2191.68 L824.42 2191.19 L879.49 2190.44 L934.44 2189.45 L989.51 2187.97 L1044.57 2186.11 L1099.52 2183.51 L1154.59 2180.17 L1209.66 2175.84 L1264.60 2170.15 L1319.67 2162.97 L1374.74 2154.06 L1429.68 2142.92 L1484.75 2129.56 L1539.70 2113.59 L1594.77 2095.15 L1649.84 2074.24 L1704.78 2051.22 L1759.85 2026.72 L1814.92 2001.35 L1869.86 1975.85 L1924.93 1951.35 L1980.00 1928.33 L2034.95 1907.42 L2090.01 1888.98 L2144.96 1873.01 L2200.03 1859.65 L2255.10 1848.51 L2310.04 1839.60 L2365.11 1832.42 L2420.18 1826.73 L2475.12 1822.40 L2530.19 1819.06 L2585.14 1816.46 L2640.21 1814.60 L2695.28 1813.12 L2750.22 1812.13 L2805.29 1811.39 L2860.36 1810.89 L2915.30 1810.52 L2970.37 1810.27 L3025.44 1810.15 L3080.39 1810.02 L3135.45 1809.90 L3190.40 1809.90 L3245.47 1809.90 L3300.54 1809.90 L3355.48 1809.90 L3410.55 1809.90 L3410.55 1649.76 L3355.48 1649.76 L3300.54 1649.76 L3245.47 1649.76 L3190.40 1649.76 L3135.45 1649.76 L3080.39 1649.89 L3025.44 1649.89 L2970.37 1650.13 L2915.30 1650.38 L2860.36 1650.75 L2805.29 1651.25 L2750.22 1651.99 L2695.28 1652.98 L2640.21 1654.34 L2585.14 1656.32 L2530.19 1658.80 L2475.12 1662.26 L2420.18 1666.59 L2365.11 1672.29 L2310.04 1679.46 L2255.10 1688.37 L2200.03 1699.51 L2144.96 1712.88 L2090.01 1728.84 L2034.95 1747.28 L1980.00 1768.20 L1924.93 1791.21 L1869.86 1815.72 L1814.92 1841.09 L1759.85 1866.46 L1704.78 1891.08 L1649.84 1914.10 L1594.77 1935.02 L1539.70 1953.45 L1484.75 1969.42 L1429.68 1982.78 L1374.74 1993.92 L1319.67 2002.83 L1264.60 2010.01 L1209.66 2015.70 L1154.59 2020.03 L1099.52 2023.38 L1044.57 2025.97 L989.51 2027.83 L934.44 2029.32 L879.49 2030.31 L824.42 2031.05 L769.48 2031.54 L714.41 2031.91 L659.34 2032.16 L604.40 2032.29 L549.33 2032.41 L494.26 2032.41 L439.31 2032.53 L384.24 2032.53 L329.18 2032.53 L274.23 2032.53 L219.16 2032.53 L219.16 2192.67 Z" stroke-linejoin="round"/>
	</defs>
	<defs>
		<clipPath id="clipPath_xCakgKKv">
			<use xlink:href="#path_CKGnwGRS"/>
		</clipPath>
	</defs>
	<use xlink:href="#path_CKGnwGRS" style="stroke:none;fill:#D7191C;fill-opacity:0.75"/>
	<use xlink:href="#path_CKGnwGRS" style="fill:none;stroke:#808080;stroke-width:6.00" clip-path="url(#clipPath_xCakgKKv)"/>
	<defs>
		<path id="path_CiFHBEKB" d="M219.16 2032.53 L219.16 2032.53 L274.23 2032.53 L329.18 2032.53 L384.24 2032.53 L439.31 2032.41 L494.26 2032.41 L549.33 2032.29 L604.40 2032.04 L659.34 2031.67 L714.41 2031.05 L769.48 2030.18 L824.42 2028.94 L879.49 2027.21 L934.44 2024.86 L989.51 2021.52 L1044.57 2016.94 L1099.52 2011.00 L1154.59 2002.96 L1209.66 1992.68 L1264.60 1979.32 L1319.67 1962.37 L1374.74 1941.08 L1429.68 1914.97 L1484.75 1883.29 L1539.70 1845.67 L1594.77 1801.98 L1649.84 1752.48 L1704.78 1698.15 L1759.85 1640.11 L1814.92 1580.09 L1869.86 1520.07 L1924.93 1462.03 L1980.00 1407.58 L2034.95 1358.20 L2090.01 1314.51 L2144.96 1276.89 L2200.03 1245.21 L2255.10 1218.98 L2310.04 1197.81 L2365.11 1180.86 L2420.18 1167.49 L2475.12 1157.10 L2530.19 1149.18 L2585.14 1143.11 L2640.21 1138.66 L2695.28 1135.32 L2750.22 1132.84 L2805.29 1131.11 L2860.36 1129.87 L2915.30 1129.01 L2970.37 1128.51 L3025.44 1128.14 L3080.39 1127.89 L3135.45 1127.77 L3190.40 1127.65 L3245.47 1127.65 L3300.54 1127.65 L3355.48 1127.65 L3410.55 1127.65 L3410.55 1047.45 L3355.48 1047.45 L3300.54 1047.45 L3245.47 1047.58 L3190.40 1047.58 L3135.45 1047.70 L3080.39 1047.82 L3025.44 1048.07 L2970.37 1048.44 L2915.30 1048.94 L2860.36 1049.80 L2805.29 1051.04 L2750.22 1052.77 L2695.28 1055.25 L2640.21 1058.59 L2585.14 1063.05 L2530.19 1069.11 L2475.12 1077.03 L2420.18 1087.43 L2365.11 1100.79 L2310.04 1117.62 L2255.10 1138.91 L2200.03 1165.02 L2144.96 1196.82 L2090.01 1234.44 L2034.95 1278.13 L1980.00 1327.51 L1924.93 1381.96 L1869.86 1440.00 L1814.92 1500.02 L1759.85 1559.92 L1704.78 1617.96 L1649.84 1672.41 L1594.77 1721.79 L1539.70 1765.47 L1484.75 1803.22 L1429.68 1834.90 L1374.74 1861.01 L1319.67 1882.30 L1264.60 1899.25 L1209.66 1912.49 L1154.59 1922.89 L1099.52 1930.81 L1044.57 1936.87 L989.51 1941.45 L934.44 1944.79 L879.49 1947.14 L824.42 1948.88 L769.48 1950.11 L714.41 1950.98 L659.34 1951.60 L604.40 1951.97 L549.33 1952.22 L494.26 1952.34 L439.31 1952.34 L384.24 1952.46 L329.18 1952.46 L274.23 1952.46 L219.16 1952.46 L219.16 2032.53 Z" stroke-linejoin="round"/>
	</defs>
	<defs>
		<clipPath id="clipPath_SAlXSBlo">
			<use xlink:href="#path_CiFHBEKB"/>
		</clipPath>
	</defs>
	<use xlink:href="#path_CiFHBEKB" style="stroke:none;fill:#D7191C;fill-opacity:0.75"/>
	<use xlink:href="#path_CiFHBEKB" style="fill:none;stroke:#808080;stroke-width:6.00" clip-path="url(#clipPath_SAlXSBlo)"/>
	<defs>
		<path id="path_vIFZYeRX" d="M219.16 1952.46 L219.16 1952.46 L274.23 1952.46 L329.18 1952.46 L384.24 1952.46 L439.31 1952.34 L494.26 1952.22 L549.33 1952.09 L604.40 1951.72 L659.34 1951.23 L714.41 1950.36 L769.48 1949.25 L824.42 1947.51 L879.49 1945.04 L934.44 1941.70 L989.51 1937.00 L1044.57 1930.68 L1099.52 1922.27 L1154.59 1911.13 L1209.66 1896.53 L1264.60 1877.96 L1319.67 1854.20 L1374.74 1824.50 L1429.68 1787.87 L1484.75 1743.44 L1539.70 1690.73 L1594.77 1629.59 L1649.84 1560.41 L1704.78 1484.30 L1759.85 1403.00 L1814.92 1318.97 L1869.86 1234.94 L1924.93 1153.76 L1980.00 1077.52 L2034.95 1008.35 L2090.01 947.21 L2144.96 894.49 L2200.03 850.07 L2255.10 813.43 L2310.04 783.73 L2365.11 760.10 L2420.18 741.41 L2475.12 726.93 L2530.19 715.79 L2585.14 707.25 L2640.21 700.94 L2695.28 696.36 L2750.22 692.90 L2805.29 690.42 L2860.36 688.69 L2915.30 687.58 L2970.37 686.71 L3025.44 686.22 L3080.39 685.97 L3135.45 685.72 L3190.40 685.60 L3245.47 685.60 L3300.54 685.60 L3355.48 685.60 L3410.55 685.47 L3410.55 605.40 L3355.48 605.40 L3300.54 605.40 L3245.47 605.53 L3190.40 605.53 L3135.45 605.65 L3080.39 605.78 L3025.44 606.15 L2970.37 606.64 L2915.30 607.51 L2860.36 608.62 L2805.29 610.35 L2750.22 612.83 L2695.28 616.17 L2640.21 620.87 L2585.14 627.18 L2530.19 635.72 L2475.12 646.74 L2420.18 661.34 L2365.11 680.03 L2310.04 703.66 L2255.10 733.37 L2200.03 770.00 L2144.96 814.42 L2090.01 867.14 L2034.95 928.28 L1980.00 997.46 L1924.93 1073.69 L1869.86 1154.87 L1814.92 1238.90 L1759.85 1322.93 L1704.78 1404.11 L1649.84 1480.34 L1594.77 1549.52 L1539.70 1610.66 L1484.75 1663.38 L1429.68 1707.80 L1374.74 1744.43 L1319.67 1774.14 L1264.60 1797.77 L1209.66 1816.46 L1154.59 1831.06 L1099.52 1842.20 L1044.57 1850.62 L989.51 1856.93 L934.44 1861.63 L879.49 1864.97 L824.42 1867.45 L769.48 1869.18 L714.41 1870.29 L659.34 1871.16 L604.40 1871.65 L549.33 1872.02 L494.26 1872.15 L439.31 1872.27 L384.24 1872.27 L329.18 1872.40 L274.23 1872.40 L219.16 1872.40 L219.16 1952.46 Z" stroke-linejoin="round"/>
	</defs>
	<defs>
		<clipPath id="clipPath_aBBXQvJg">
			<use xlink:href="#path_vIFZYeRX"/>
		</clipPath>
	</defs>
	<use xlink:href="#path_vIFZYeRX" style="stroke:none;fill:#D7191C;fill-opacity:0.75"/>
	<use xlink:href="#path_vIFZYeRX" style="fill:none;stroke:#808080;stroke-width:6.00" clip-path="url(#clipPath_aBBXQvJg)"/>
	<defs>
		<path id="path_RPlElMPx" d="M219.16 1830.69 L219.16 1830.69 L274.23 1830.69 L329.18 1830.69 L384.24 1830.69 L439.31 1830.69 L494.26 1830.81 L549.33 1830.81 L604.40 1830.94 L659.34 1831.19 L714.41 1831.43 L769.48 1831.93 L824.42 1832.55 L879.49 1833.41 L934.44 1834.65 L989.51 1836.38 L1044.57 1838.61 L1099.52 1841.71 L1154.59 1845.79 L1209.66 1851.11 L1264.60 1857.92 L1319.67 1866.58 L1374.74 1877.47 L1429.68 1890.84 L1484.75 1907.05 L1539.70 1926.35 L1594.77 1948.63 L1649.84 1974.00 L1704.78 2001.72 L1759.85 2031.42 L1814.92 2062.11 L1869.86 2092.80 L1924.93 2122.50 L1980.00 2150.35 L2034.95 2175.59 L2090.01 2197.99 L2144.96 2217.30 L2200.03 2233.51 L2255.10 2246.88 L2310.04 2257.64 L2365.11 2266.30 L2420.18 2273.23 L2475.12 2278.43 L2530.19 2282.52 L2585.14 2285.61 L2640.21 2287.96 L2695.28 2289.69 L2750.22 2290.93 L2805.29 2291.80 L2860.36 2292.42 L2915.30 2292.91 L2970.37 2293.16 L3025.44 2293.28 L3080.39 2293.41 L3135.45 2293.53 L3190.40 2293.53 L3245.47 2293.53 L3300.54 2293.53 L3355.48 2293.53 L3410.55 2293.65 L3410.55 2213.46 L3355.48 2213.46 L3300.54 2213.46 L3245.47 2213.46 L3190.40 2213.46 L3135.45 2213.46 L3080.39 2213.34 L3025.44 2213.21 L2970.37 2213.09 L2915.30 2212.72 L2860.36 2212.35 L2805.29 2211.73 L2750.22 2210.86 L2695.28 2209.63 L2640.21 2207.89 L2585.14 2205.54 L2530.19 2202.45 L2475.12 2198.36 L2420.18 2193.04 L2365.11 2186.24 L2310.04 2177.57 L2255.10 2166.81 L2200.03 2153.32 L2144.96 2137.11 L2090.01 2117.92 L2034.95 2095.52 L1980.00 2070.28 L1924.93 2042.43 L1869.86 2012.73 L1814.92 1982.04 L1759.85 1951.35 L1704.78 1921.65 L1649.84 1893.93 L1594.77 1868.56 L1539.70 1846.28 L1484.75 1826.98 L1429.68 1810.77 L1374.74 1797.40 L1319.67 1786.51 L1264.60 1777.85 L1209.66 1771.04 L1154.59 1765.72 L1099.52 1761.64 L1044.57 1758.54 L989.51 1756.31 L934.44 1754.58 L879.49 1753.34 L824.42 1752.48 L769.48 1751.86 L714.41 1751.36 L659.34 1751.12 L604.40 1750.87 L549.33 1750.75 L494.26 1750.75 L439.31 1750.62 L384.24 1750.62 L329.18 1750.62 L274.23 1750.62 L219.16 1750.62 L219.16 1830.69 Z" stroke-linejoin="round"/>
	</defs>
	<defs>
		<clipPath id="clipPath_VzDtLDWI">
			<use xlink:href="#path_RPlElMPx"/>
		</clipPath>
	</defs>
	<use xlink:href="#path_RPlElMPx" style="stroke:none;fill:#FDAE61;fill-opacity:0.75"/>
	<use xlink:href="#path_RPlElMPx" style="fill:none;stroke:#808080;stroke-width:6.00" clip-path="url(#clipPath_VzDtLDWI)"/>
	<defs>
		<path id="path_KDOuRwgh" d="M219.16 1750.62 L219.16 1750.62 L274.23 1750.62 L329.18 1750.62 L384.24 1750.62 L439.31 1750.62 L494.26 1750.75 L549.33 1750.75 L604.40 1750.87 L659.34 1750.99 L714.41 1751.12 L769.48 1751.49 L824.42 1751.98 L879.49 1752.60 L934.44 1753.59 L989.51 1754.83 L1044.57 1756.44 L1099.52 1758.79 L1154.59 1761.76 L1209.66 1765.72 L1264.60 1770.67 L1319.67 1777.11 L1374.74 1785.15 L1429.68 1794.93 L1484.75 1806.93 L1539.70 1821.04 L1594.77 1837.62 L1649.84 1856.18 L1704.78 1876.73 L1759.85 1898.63 L1814.92 1921.16 L1869.86 1943.80 L1924.93 1965.71 L1980.00 1986.25 L2034.95 2004.81 L2090.01 2021.27 L2144.96 2035.50 L2200.03 2047.51 L2255.10 2057.28 L2310.04 2065.33 L2365.11 2071.76 L2420.18 2076.71 L2475.12 2080.67 L2530.19 2083.64 L2585.14 2085.87 L2640.21 2087.60 L2695.28 2088.84 L2750.22 2089.83 L2805.29 2090.45 L2860.36 2090.95 L2915.30 2091.19 L2970.37 2091.44 L3025.44 2091.56 L3080.39 2091.69 L3135.45 2091.69 L3190.40 2091.81 L3245.47 2091.81 L3300.54 2091.81 L3355.48 2091.81 L3410.55 2091.81 L3410.55 1931.67 L3355.48 1931.67 L3300.54 1931.67 L3245.47 1931.55 L3190.40 1931.55 L3135.45 1931.55 L3080.39 1931.55 L3025.44 1931.43 L2970.37 1931.30 L2915.30 1931.06 L2860.36 1930.81 L2805.29 1930.31 L2750.22 1929.69 L2695.28 1928.70 L2640.21 1927.47 L2585.14 1925.73 L2530.19 1923.51 L2475.12 1920.54 L2420.18 1916.58 L2365.11 1911.50 L2310.04 1905.19 L2255.10 1897.15 L2200.03 1887.25 L2144.96 1875.37 L2090.01 1861.13 L2034.95 1844.68 L1980.00 1825.99 L1924.93 1805.57 L1869.86 1783.66 L1814.92 1761.02 L1759.85 1738.37 L1704.78 1716.59 L1649.84 1696.05 L1594.77 1677.36 L1539.70 1660.90 L1484.75 1646.79 L1429.68 1634.79 L1374.74 1624.89 L1319.67 1616.97 L1264.60 1610.53 L1209.66 1605.46 L1154.59 1601.62 L1099.52 1598.65 L1044.57 1596.30 L989.51 1594.57 L934.44 1593.33 L879.49 1592.46 L824.42 1591.85 L769.48 1591.35 L714.41 1590.98 L659.34 1590.86 L604.40 1590.61 L549.33 1590.61 L494.26 1590.48 L439.31 1590.48 L384.24 1590.48 L329.18 1590.48 L274.23 1590.48 L219.16 1590.48 L219.16 1750.62 Z" stroke-linejoin="round"/>
	</defs>
	<defs>
		<clipPath id="clipPath_SnXDFxpC">
			<use xlink:href="#path_KDOuRwgh"/>
		</clipPath>
	</defs>
	<use xlink:href="#path_KDOuRwgh" style="stroke:none;fill:#FDAE61;fill-opacity:0.75"/>
	<use xlink:href="#path_KDOuRwgh" style="fill:none;stroke:#808080;stroke-width:6.00" clip-path="url(#clipPath_SnXDFxpC)"/>
	<defs>
		<path id="path_pdUPGGCO" d="M219.16 1590.48 L219.16 1590.48 L274.23 1590.48 L329.18 1590.48 L384.24 1590.48 L439.31 1590.48 L494.26 1590.48 L549.33 1590.48 L604.40 1590.48 L659.34 1590.48 L714.41 1590.61 L769.48 1590.61 L824.42 1590.73 L879.49 1590.86 L934.44 1590.98 L989.51 1591.23 L1044.57 1591.47 L1099.52 1591.85 L1154.59 1592.34 L1209.66 1593.08 L1264.60 1593.95 L1319.67 1595.06 L1374.74 1596.42 L1429.68 1598.16 L1484.75 1600.26 L1539.70 1602.74 L1594.77 1605.58 L1649.84 1608.80 L1704.78 1612.39 L1759.85 1616.23 L1814.92 1620.06 L1869.86 1624.02 L1924.93 1627.86 L1980.00 1631.45 L2034.95 1634.66 L2090.01 1637.51 L2144.96 1639.99 L2200.03 1642.09 L2255.10 1643.70 L2310.04 1645.18 L2365.11 1646.30 L2420.18 1647.16 L2475.12 1647.78 L2530.19 1648.28 L2585.14 1648.65 L2640.21 1649.02 L2695.28 1649.27 L2750.22 1649.39 L2805.29 1649.52 L2860.36 1649.64 L2915.30 1649.64 L2970.37 1649.64 L3025.44 1649.64 L3080.39 1649.76 L3135.45 1649.76 L3190.40 1649.76 L3245.47 1649.76 L3300.54 1649.76 L3355.48 1649.76 L3410.55 1649.76 L3410.55 1569.69 L3355.48 1569.69 L3300.54 1569.69 L3245.47 1569.69 L3190.40 1569.69 L3135.45 1569.69 L3080.39 1569.57 L3025.44 1569.57 L2970.37 1569.57 L2915.30 1569.57 L2860.36 1569.45 L2805.29 1569.45 L2750.22 1569.32 L2695.28 1569.20 L2640.21 1568.95 L2585.14 1568.58 L2530.19 1568.21 L2475.12 1567.71 L2420.18 1566.97 L2365.11 1566.11 L2310.04 1564.99 L2255.10 1563.63 L2200.03 1561.90 L2144.96 1559.92 L2090.01 1557.44 L2034.95 1554.60 L1980.00 1551.25 L1924.93 1547.79 L1869.86 1543.95 L1814.92 1539.99 L1759.85 1536.03 L1704.78 1532.32 L1649.84 1528.73 L1594.77 1525.51 L1539.70 1522.67 L1484.75 1520.19 L1429.68 1518.09 L1374.74 1516.36 L1319.67 1514.99 L1264.60 1513.88 L1209.66 1513.01 L1154.59 1512.27 L1099.52 1511.78 L1044.57 1511.41 L989.51 1511.16 L934.44 1510.91 L879.49 1510.79 L824.42 1510.66 L769.48 1510.54 L714.41 1510.54 L659.34 1510.42 L604.40 1510.42 L549.33 1510.42 L494.26 1510.42 L439.31 1510.42 L384.24 1510.42 L329.18 1510.42 L274.23 1510.42 L219.16 1510.42 L219.16 1590.48 Z" stroke-linejoin="round"/>
	</defs>
	<defs>
		<clipPath id="clipPath_wioBpibD">
			<use xlink:href="#path_pdUPGGCO"/>
		</clipPath>
	</defs>
	<use xlink:href="#path_pdUPGGCO" style="stroke:none;fill:#FDAE61;fill-opacity:0.75"/>
	<use xlink:href="#path_pdUPGGCO" style="fill:none;stroke:#808080;stroke-width:6.00" clip-path="url(#clipPath_wioBpibD)"/>
	<defs>
		<path id="path_ZCkmxLuq" d="M219.16 1510.42 L219.16 1510.42 L274.23 1510.42 L329.18 1510.42 L384.24 1510.42 L439.31 1510.29 L494.26 1510.29 L549.33 1510.29 L604.40 1510.17 L659.34 1509.92 L714.41 1509.67 L769.48 1509.18 L824.42 1508.56 L879.49 1507.69 L934.44 1506.46 L989.51 1504.72 L1044.57 1502.37 L1099.52 1499.40 L1154.59 1495.32 L1209.66 1490.00 L1264.60 1483.19 L1319.67 1474.53 L1374.74 1463.64 L1429.68 1450.27 L1484.75 1434.06 L1539.70 1414.75 L1594.77 1392.48 L1649.84 1367.11 L1704.78 1339.26 L1759.85 1309.69 L1814.92 1279.00 L1869.86 1248.31 L1924.93 1218.60 L1980.00 1190.76 L2034.95 1165.51 L2090.01 1143.11 L2144.96 1123.81 L2200.03 1107.60 L2255.10 1094.23 L2310.04 1083.34 L2365.11 1074.68 L2420.18 1067.87 L2475.12 1062.67 L2530.19 1058.59 L2585.14 1055.50 L2640.21 1053.15 L2695.28 1051.41 L2750.22 1050.18 L2805.29 1049.31 L2860.36 1048.69 L2915.30 1048.20 L2970.37 1047.95 L3025.44 1047.82 L3080.39 1047.70 L3135.45 1047.58 L3190.40 1047.58 L3245.47 1047.58 L3300.54 1047.45 L3355.48 1047.45 L3410.55 1047.45 L3410.55 887.32 L3355.48 887.32 L3300.54 887.32 L3245.47 887.32 L3190.40 887.32 L3135.45 887.44 L3080.39 887.44 L3025.44 887.56 L2970.37 887.81 L2915.30 888.06 L2860.36 888.55 L2805.29 889.17 L2750.22 890.04 L2695.28 891.28 L2640.21 893.01 L2585.14 895.24 L2530.19 898.33 L2475.12 902.41 L2420.18 907.73 L2365.11 914.54 L2310.04 923.20 L2255.10 934.09 L2200.03 947.46 L2144.96 963.67 L2090.01 982.98 L2034.95 1005.25 L1980.00 1030.62 L1924.93 1058.34 L1869.86 1088.04 L1814.92 1118.73 L1759.85 1149.43 L1704.78 1179.13 L1649.84 1206.97 L1594.77 1232.22 L1539.70 1254.62 L1484.75 1273.92 L1429.68 1290.13 L1374.74 1303.50 L1319.67 1314.27 L1264.60 1323.05 L1209.66 1329.86 L1154.59 1335.06 L1099.52 1339.14 L1044.57 1342.23 L989.51 1344.59 L934.44 1346.32 L879.49 1347.56 L824.42 1348.42 L769.48 1349.04 L714.41 1349.54 L659.34 1349.78 L604.40 1349.91 L549.33 1350.03 L494.26 1350.15 L439.31 1350.15 L384.24 1350.15 L329.18 1350.15 L274.23 1350.28 L219.16 1350.28 L219.16 1510.42 Z" stroke-linejoin="round"/>
	</defs>
	<defs>
		<clipPath id="clipPath_dMxYhyRv">
			<use xlink:href="#path_ZCkmxLuq"/>
		</clipPath>
	</defs>
	<use xlink:href="#path_ZCkmxLuq" style="stroke:none;fill:#FDAE61;fill-opacity:0.75"/>
	<use xlink:href="#path_ZCkmxLuq" style="fill:none;stroke:#808080;stroke-width:6.00" clip-path="url(#clipPath_dMxYhyRv)"/>
	<defs>
		<path id="path_HUjuOFMf" d="M219.16 1350.28 L219.16 1350.28 L274.23 1350.28 L329.18 1350.15 L384.24 1350.15 L439.31 1350.15 L494.26 1350.15 L549.33 1350.03 L604.40 1349.78 L659.34 1349.54 L714.41 1349.04 L769.48 1348.30 L824.42 1347.31 L879.49 1345.95 L934.44 1343.84 L989.51 1341.12 L1044.57 1337.41 L1099.52 1332.46 L1154.59 1325.90 L1209.66 1317.36 L1264.60 1306.47 L1319.67 1292.49 L1374.74 1275.04 L1429.68 1253.50 L1484.75 1227.39 L1539.70 1196.45 L1594.77 1160.44 L1649.84 1119.72 L1704.78 1074.93 L1759.85 1027.16 L1814.92 977.78 L1869.86 928.40 L1924.93 880.63 L1980.00 835.96 L2034.95 795.24 L2090.01 759.23 L2144.96 728.29 L2200.03 702.18 L2255.10 680.65 L2310.04 663.20 L2365.11 649.21 L2420.18 638.32 L2475.12 629.78 L2530.19 623.22 L2585.14 618.27 L2640.21 614.56 L2695.28 611.84 L2750.22 609.74 L2805.29 608.37 L2860.36 607.38 L2915.30 606.64 L2970.37 606.15 L3025.44 605.90 L3080.39 605.65 L3135.45 605.53 L3190.40 605.53 L3245.47 605.53 L3300.54 605.40 L3355.48 605.40 L3410.55 605.40 L3410.55 445.27 L3355.48 445.27 L3300.54 445.27 L3245.47 445.27 L3190.40 445.39 L3135.45 445.39 L3080.39 445.51 L3025.44 445.76 L2970.37 446.01 L2915.30 446.50 L2860.36 447.12 L2805.29 448.24 L2750.22 449.60 L2695.28 451.58 L2640.21 454.42 L2585.14 458.14 L2530.19 463.09 L2475.12 469.65 L2420.18 478.06 L2365.11 489.08 L2310.04 503.06 L2255.10 520.51 L2200.03 542.04 L2144.96 568.15 L2090.01 599.09 L2034.95 635.10 L1980.00 675.70 L1924.93 720.50 L1869.86 768.26 L1814.92 817.64 L1759.85 867.02 L1704.78 914.79 L1649.84 959.59 L1594.77 1000.30 L1539.70 1036.19 L1484.75 1067.25 L1429.68 1093.24 L1374.74 1114.77 L1319.67 1132.35 L1264.60 1146.21 L1209.66 1157.22 L1154.59 1165.76 L1099.52 1172.32 L1044.57 1177.27 L989.51 1180.98 L934.44 1183.71 L879.49 1185.69 L824.42 1187.17 L769.48 1188.16 L714.41 1188.90 L659.34 1189.27 L604.40 1189.65 L549.33 1189.77 L494.26 1189.89 L439.31 1190.02 L384.24 1190.02 L329.18 1190.02 L274.23 1190.02 L219.16 1190.02 L219.16 1350.28 Z" stroke-linejoin="round"/>
	</defs>
	<defs>
		<clipPath id="clipPath_OTwSmcxk">
			<use xlink:href="#path_HUjuOFMf"/>
		</clipPath>
	</defs>
	<use xlink:href="#path_HUjuOFMf" style="stroke:none;fill:#FDAE61;fill-opacity:0.75"/>
	<use xlink:href="#path_HUjuOFMf" style="fill:none;stroke:#808080;stroke-width:6.00" clip-path="url(#clipPath_OTwSmcxk)"/>
	<defs>
		<path id="path_WrrmDheo" d="M219.16 1148.44 L219.16 1148.44 L274.23 1148.44 L329.18 1148.44 L384.24 1148.44 L439.31 1148.44 L494.26 1148.56 L549.33 1148.68 L604.40 1148.81 L659.34 1149.18 L714.41 1149.67 L769.48 1150.42 L824.42 1151.41 L879.49 1153.01 L934.44 1155.12 L989.51 1157.96 L1044.57 1161.93 L1099.52 1167.12 L1154.59 1173.93 L1209.66 1182.96 L1264.60 1194.47 L1319.67 1209.20 L1374.74 1227.51 L1429.68 1250.16 L1484.75 1277.63 L1539.70 1310.18 L1594.77 1348.05 L1649.84 1390.75 L1704.78 1437.90 L1759.85 1488.14 L1814.92 1539.99 L1869.86 1591.97 L1924.93 1642.21 L1980.00 1689.24 L2034.95 1732.06 L2090.01 1769.80 L2144.96 1802.48 L2200.03 1829.82 L2255.10 1852.47 L2310.04 1870.91 L2365.11 1885.51 L2420.18 1897.15 L2475.12 1906.06 L2530.19 1912.99 L2585.14 1918.18 L2640.21 1922.02 L2695.28 1924.99 L2750.22 1927.10 L2805.29 1928.58 L2860.36 1929.69 L2915.30 1930.31 L2970.37 1930.81 L3025.44 1931.18 L3080.39 1931.43 L3135.45 1931.55 L3190.40 1931.55 L3245.47 1931.55 L3300.54 1931.67 L3355.48 1931.67 L3410.55 1931.67 L3410.55 1851.48 L3355.48 1851.48 L3300.54 1851.48 L3245.47 1851.48 L3190.40 1851.48 L3135.45 1851.36 L3080.39 1851.36 L3025.44 1851.11 L2970.37 1850.74 L2915.30 1850.24 L2860.36 1849.50 L2805.29 1848.51 L2750.22 1847.03 L2695.28 1844.92 L2640.21 1841.95 L2585.14 1838.12 L2530.19 1832.92 L2475.12 1825.99 L2420.18 1816.95 L2365.11 1805.45 L2310.04 1790.84 L2255.10 1772.40 L2200.03 1749.76 L2144.96 1722.41 L2090.01 1689.74 L2034.95 1651.99 L1980.00 1609.17 L1924.93 1562.15 L1869.86 1511.90 L1814.92 1459.92 L1759.85 1407.95 L1704.78 1357.83 L1649.84 1310.68 L1594.77 1267.86 L1539.70 1230.11 L1484.75 1197.57 L1429.68 1170.09 L1374.74 1147.45 L1319.67 1129.01 L1264.60 1114.40 L1209.66 1102.89 L1154.59 1093.86 L1099.52 1087.05 L1044.57 1081.73 L989.51 1077.90 L934.44 1075.05 L879.49 1072.95 L824.42 1071.34 L769.48 1070.35 L714.41 1069.60 L659.34 1069.11 L604.40 1068.74 L549.33 1068.61 L494.26 1068.49 L439.31 1068.37 L384.24 1068.37 L329.18 1068.37 L274.23 1068.37 L219.16 1068.37 L219.16 1148.44 Z" stroke-linejoin="round"/>
	</defs>
	<defs>
		<clipPath id="clipPath_bkCzBrKb">
			<use xlink:href="#path_WrrmDheo"/>
		</clipPath>
	</defs>
	<use xlink:href="#path_WrrmDheo" style="stroke:none;fill:#FFFFBF;fill-opacity:0.75"/>
	<use xlink:href="#path_WrrmDheo" style="fill:none;stroke:#808080;stroke-width:6.00" clip-path="url(#clipPath_bkCzBrKb)"/>
	<defs>
		<path id="path_BENBULck" d="M219.16 1068.37 L219.16 1068.37 L274.23 1068.37 L329.18 1068.37 L384.24 1068.37 L439.31 1068.37 L494.26 1068.37 L549.33 1068.49 L604.40 1068.61 L659.34 1068.86 L714.41 1069.11 L769.48 1069.60 L824.42 1070.22 L879.49 1071.21 L934.44 1072.57 L989.51 1074.43 L1044.57 1076.91 L1099.52 1080.25 L1154.59 1084.70 L1209.66 1090.40 L1264.60 1097.82 L1319.67 1107.23 L1374.74 1118.98 L1429.68 1133.46 L1484.75 1151.03 L1539.70 1171.83 L1594.77 1196.08 L1649.84 1223.43 L1704.78 1253.63 L1759.85 1285.80 L1814.92 1318.97 L1869.86 1352.26 L1924.93 1384.43 L1980.00 1414.51 L2034.95 1441.86 L2090.01 1466.11 L2144.96 1486.90 L2200.03 1504.48 L2255.10 1518.95 L2310.04 1530.71 L2365.11 1540.12 L2420.18 1547.54 L2475.12 1553.23 L2530.19 1557.69 L2585.14 1561.03 L2640.21 1563.51 L2695.28 1565.36 L2750.22 1566.72 L2805.29 1567.71 L2860.36 1568.33 L2915.30 1568.83 L2970.37 1569.20 L3025.44 1569.32 L3080.39 1569.45 L3135.45 1569.57 L3190.40 1569.57 L3245.47 1569.69 L3300.54 1569.69 L3355.48 1569.69 L3410.55 1569.69 L3410.55 1169.23 L3355.48 1169.23 L3300.54 1169.23 L3245.47 1169.23 L3190.40 1169.23 L3135.45 1169.10 L3080.39 1169.10 L3025.44 1168.98 L2970.37 1168.73 L2915.30 1168.48 L2860.36 1167.99 L2805.29 1167.25 L2750.22 1166.26 L2695.28 1165.02 L2640.21 1163.16 L2585.14 1160.56 L2530.19 1157.22 L2475.12 1152.89 L2420.18 1147.07 L2365.11 1139.77 L2310.04 1130.37 L2255.10 1118.61 L2200.03 1104.13 L2144.96 1086.56 L2090.01 1065.64 L2034.95 1041.51 L1980.00 1014.04 L1924.93 983.97 L1869.86 951.79 L1814.92 918.62 L1759.85 885.34 L1704.78 853.16 L1649.84 823.09 L1594.77 795.61 L1539.70 771.48 L1484.75 750.57 L1429.68 732.99 L1374.74 718.51 L1319.67 706.76 L1264.60 697.35 L1209.66 690.05 L1154.59 684.24 L1099.52 679.90 L1044.57 676.56 L989.51 674.09 L934.44 672.23 L879.49 670.87 L824.42 669.88 L769.48 669.14 L714.41 668.77 L659.34 668.39 L604.40 668.15 L549.33 668.02 L494.26 668.02 L439.31 667.90 L384.24 667.90 L329.18 667.90 L274.23 667.90 L219.16 667.90 L219.16 1068.37 Z" stroke-linejoin="round"/>
	</defs>
	<defs>
		<clipPath id="clipPath_zLAscOLs">
			<use xlink:href="#path_BENBULck"/>
		</clipPath>
	</defs>
	<use xlink:href="#path_BENBULck" style="stroke:none;fill:#FFFFBF;fill-opacity:0.75"/>
	<use xlink:href="#path_BENBULck" style="fill:none;stroke:#808080;stroke-width:6.00" clip-path="url(#clipPath_zLAscOLs)"/>
	<defs>
		<path id="path_ggBQKsRr" d="M219.16 667.90 L219.16 667.90 L274.23 667.90 L329.18 667.90 L384.24 667.90 L439.31 667.90 L494.26 667.90 L549.33 668.02 L604.40 668.02 L659.34 668.15 L714.41 668.27 L769.48 668.52 L824.42 668.77 L879.49 669.14 L934.44 669.76 L989.51 670.62 L1044.57 671.74 L1099.52 673.10 L1154.59 675.08 L1209.66 677.55 L1264.60 680.77 L1319.67 684.98 L1374.74 690.05 L1429.68 696.36 L1484.75 704.16 L1539.70 713.19 L1594.77 723.84 L1649.84 735.84 L1704.78 748.96 L1759.85 763.07 L1814.92 777.67 L1869.86 792.15 L1924.93 806.26 L1980.00 819.50 L2034.95 831.38 L2090.01 842.02 L2144.96 851.18 L2200.03 858.85 L2255.10 865.16 L2310.04 870.36 L2365.11 874.44 L2420.18 877.66 L2475.12 880.14 L2530.19 882.12 L2585.14 883.60 L2640.21 884.72 L2695.28 885.46 L2750.22 886.08 L2805.29 886.45 L2860.36 886.82 L2915.30 886.94 L2970.37 887.07 L3025.44 887.19 L3080.39 887.32 L3135.45 887.32 L3190.40 887.32 L3245.47 887.32 L3300.54 887.32 L3355.48 887.32 L3410.55 887.32 L3410.55 807.25 L3355.48 807.25 L3300.54 807.25 L3245.47 807.25 L3190.40 807.25 L3135.45 807.25 L3080.39 807.25 L3025.44 807.12 L2970.37 807.00 L2915.30 806.88 L2860.36 806.75 L2805.29 806.38 L2750.22 806.01 L2695.28 805.39 L2640.21 804.52 L2585.14 803.53 L2530.19 802.05 L2475.12 800.07 L2420.18 797.59 L2365.11 794.38 L2310.04 790.29 L2255.10 785.09 L2200.03 778.78 L2144.96 771.11 L2090.01 761.95 L2034.95 751.31 L1980.00 739.31 L1924.93 726.19 L1869.86 712.08 L1814.92 697.60 L1759.85 683.00 L1704.78 668.89 L1649.84 655.77 L1594.77 643.77 L1539.70 633.12 L1484.75 623.97 L1429.68 616.29 L1374.74 609.98 L1319.67 604.91 L1264.60 600.70 L1209.66 597.48 L1154.59 595.01 L1099.52 593.03 L1044.57 591.54 L989.51 590.55 L934.44 589.69 L879.49 589.07 L824.42 588.70 L769.48 588.45 L714.41 588.20 L659.34 588.08 L604.40 587.95 L549.33 587.95 L494.26 587.83 L439.31 587.83 L384.24 587.83 L329.18 587.83 L274.23 587.83 L219.16 587.83 L219.16 667.90 Z" stroke-linejoin="round"/>
	</defs>
	<defs>
		<clipPath id="clipPath_FmXbuQEd">
			<use xlink:href="#path_ggBQKsRr"/>
		</clipPath>
	</defs>
	<use xlink:href="#path_ggBQKsRr" style="stroke:none;fill:#FFFFBF;fill-opacity:0.75"/>
	<use xlink:href="#path_ggBQKsRr" style="fill:none;stroke:#808080;stroke-width:6.00" clip-path="url(#clipPath_FmXbuQEd)"/>
	<defs>
		<path id="path_IYMegCPK" d="M219.16 587.83 L219.16 587.83 L274.23 587.83 L329.18 587.83 L384.24 587.83 L439.31 587.83 L494.26 587.83 L549.33 587.83 L604.40 587.71 L659.34 587.71 L714.41 587.58 L769.48 587.46 L824.42 587.34 L879.49 586.96 L934.44 586.59 L989.51 586.10 L1044.57 585.36 L1099.52 584.49 L1154.59 583.13 L1209.66 581.52 L1264.60 579.42 L1319.67 576.82 L1374.74 573.48 L1429.68 569.27 L1484.75 564.32 L1539.70 558.38 L1594.77 551.45 L1649.84 543.77 L1704.78 535.11 L1759.85 525.95 L1814.92 516.55 L1869.86 507.14 L1924.93 497.99 L1980.00 489.45 L2034.95 481.65 L2090.01 474.72 L2144.96 468.78 L2200.03 463.83 L2255.10 459.62 L2310.04 456.28 L2365.11 453.68 L2420.18 451.58 L2475.12 449.97 L2530.19 448.73 L2585.14 447.74 L2640.21 447.00 L2695.28 446.50 L2750.22 446.13 L2805.29 445.89 L2860.36 445.64 L2915.30 445.51 L2970.37 445.39 L3025.44 445.39 L3080.39 445.39 L3135.45 445.27 L3190.40 445.27 L3245.47 445.27 L3300.54 445.27 L3355.48 445.27 L3410.55 445.27 L3410.55 285.13 L3355.48 285.13 L3300.54 285.13 L3245.47 285.13 L3190.40 285.13 L3135.45 285.13 L3080.39 285.13 L3025.44 285.25 L2970.37 285.25 L2915.30 285.38 L2860.36 285.50 L2805.29 285.62 L2750.22 286.00 L2695.28 286.37 L2640.21 286.86 L2585.14 287.60 L2530.19 288.47 L2475.12 289.83 L2420.18 291.44 L2365.11 293.54 L2310.04 296.14 L2255.10 299.48 L2200.03 303.69 L2144.96 308.64 L2090.01 314.58 L2034.95 321.39 L1980.00 329.19 L1924.93 337.85 L1869.86 346.88 L1814.92 356.41 L1759.85 365.82 L1704.78 374.97 L1649.84 383.51 L1594.77 391.31 L1539.70 398.24 L1484.75 404.18 L1429.68 409.13 L1374.74 413.21 L1319.67 416.56 L1264.60 419.28 L1209.66 421.38 L1154.59 422.99 L1099.52 424.23 L1044.57 425.22 L989.51 425.96 L934.44 426.46 L879.49 426.83 L824.42 427.07 L769.48 427.32 L714.41 427.45 L659.34 427.57 L604.40 427.57 L549.33 427.57 L494.26 427.69 L439.31 427.69 L384.24 427.69 L329.18 427.69 L274.23 427.69 L219.16 427.69 L219.16 587.83 Z" stroke-linejoin="round"/>
	</defs>
	<defs>
		<clipPath id="clipPath_uigkJUiO">
			<use xlink:href="#path_IYMegCPK"/>
		</clipPath>
	</defs>
	<use xlink:href="#path_IYMegCPK" style="stroke:none;fill:#FFFFBF;fill-opacity:0.75"/>
	<use xlink:href="#path_IYMegCPK" style="fill:none;stroke:#808080;stroke-width:6.00" clip-path="url(#clipPath_uigkJUiO)"/>
	<defs>
		<path id="path_XmTDgxyu" d="M219.16 385.99 L219.16 385.99 L274.23 385.99 L329.18 385.99 L384.24 385.99 L439.31 386.11 L494.26 386.11 L549.33 386.11 L604.40 386.24 L659.34 386.48 L714.41 386.73 L769.48 387.10 L824.42 387.72 L879.49 388.46 L934.44 389.58 L989.51 391.19 L1044.57 393.29 L1099.52 396.01 L1154.59 399.72 L1209.66 404.55 L1264.60 410.86 L1319.67 418.66 L1374.74 428.56 L1429.68 440.81 L1484.75 455.54 L1539.70 472.99 L1594.77 493.41 L1649.84 516.42 L1704.78 541.67 L1759.85 568.77 L1814.92 596.62 L1869.86 624.59 L1924.93 651.56 L1980.00 676.93 L2034.95 699.95 L2090.01 720.25 L2144.96 737.82 L2200.03 752.55 L2255.10 764.68 L2310.04 774.58 L2365.11 782.50 L2420.18 788.68 L2475.12 793.51 L2530.19 797.22 L2585.14 800.07 L2640.21 802.17 L2695.28 803.66 L2750.22 804.77 L2805.29 805.64 L2860.36 806.13 L2915.30 806.63 L2970.37 806.88 L3025.44 807.00 L3080.39 807.12 L3135.45 807.25 L3190.40 807.25 L3245.47 807.25 L3300.54 807.25 L3355.48 807.25 L3410.55 807.25 L3410.55 727.18 L3355.48 727.18 L3300.54 727.18 L3245.47 727.18 L3190.40 727.18 L3135.45 727.05 L3080.39 727.05 L3025.44 726.93 L2970.37 726.81 L2915.30 726.56 L2860.36 726.06 L2805.29 725.57 L2750.22 724.70 L2695.28 723.59 L2640.21 721.98 L2585.14 719.88 L2530.19 717.15 L2475.12 713.44 L2420.18 708.61 L2365.11 702.43 L2310.04 694.51 L2255.10 684.61 L2200.03 672.48 L2144.96 657.75 L2090.01 640.18 L2034.95 619.88 L1980.00 596.86 L1924.93 571.50 L1869.86 544.52 L1814.92 516.55 L1759.85 488.58 L1704.78 461.60 L1649.84 436.23 L1594.77 413.34 L1539.70 392.92 L1484.75 375.47 L1429.68 360.62 L1374.74 348.49 L1319.67 338.59 L1264.60 330.67 L1209.66 324.48 L1154.59 319.66 L1099.52 315.94 L1044.57 313.22 L989.51 311.12 L934.44 309.51 L879.49 308.39 L824.42 307.53 L769.48 307.03 L714.41 306.66 L659.34 306.29 L604.40 306.17 L549.33 306.04 L494.26 306.04 L439.31 305.92 L384.24 305.92 L329.18 305.92 L274.23 305.92 L219.16 305.92 L219.16 385.99 Z" stroke-linejoin="round"/>
	</defs>
	<defs>
		<clipPath id="clipPath_xUTMWRmt">
			<use xlink:href="#path_XmTDgxyu"/>
		</clipPath>
	</defs>
	<use xlink:href="#path_XmTDgxyu" style="stroke:none;fill:#ABD9E9;fill-opacity:0.75"/>
	<use xlink:href="#path_XmTDgxyu" style="fill:none;stroke:#808080;stroke-width:6.00" clip-path="url(#clipPath_xUTMWRmt)"/>
	<line x1="164.22" y1="2513.07" x2="164.22" y2="1872.40" style="stroke:#D7191C;stroke-width:144.00"/>
	<line x1="164.22" y1="1830.69" x2="164.22" y2="1190.02" style="stroke:#FDAE61;stroke-width:144.00"/>
	<line x1="164.22" y1="1148.44" x2="164.22" y2="427.69" style="stroke:#FFFFBF;stroke-width:144.00"/>
	<line x1="164.22" y1="385.99" x2="164.22" y2="305.92" style="stroke:#ABD9E9;stroke-width:144.00"/>
	<line x1="3465.62" y1="2533.86" x2="3465.62" y2="2213.46" style="stroke:#D7191C;stroke-width:144.00"/>
	<line x1="3465.62" y1="2171.88" x2="3465.62" y2="1851.48" style="stroke:#FDAE61;stroke-width:144.00"/>
	<line x1="3465.62" y1="1809.90" x2="3465.62" y2="1169.23" style="stroke:#FFFFBF;stroke-width:144.00"/>
	<line x1="3465.62" y1="1127.65" x2="3465.62" y2="727.18" style="stroke:#ABD9E9;stroke-width:144.00"/>
	<line x1="3465.62" y1="685.47" x2="3465.62" y2="285.13" style="stroke:#2C7BB6;stroke-width:144.00"/>
	<text x="186.24" y="2212.84" style="font-family:'Helvetica';font-size:57.54px;fill:#000000">1-very low (8)</text>
	<text x="186.24" y="1530.59" style="font-family:'Helvetica';font-size:57.54px;fill:#000000">2-low (8)</text>
	<text x="186.24" y="808.24" style="font-family:'Helvetica';font-size:57.54px;fill:#000000">3-medium (9)</text>
	<text x="186.24" y="366.19" style="font-family:'Helvetica';font-size:57.54px;fill:#000000">4-high (1)</text>
	<text x="3487.65" y="2393.89" style="font-family:'Helvetica';font-size:57.54px;fill:#000000">1-very low (4)</text>
	<text x="3487.65" y="2031.91" style="font-family:'Helvetica';font-size:57.54px;fill:#000000">2-low (4)</text>
	<text x="3487.65" y="1509.67" style="font-family:'Helvetica';font-size:57.54px;fill:#000000">3-medium (8)</text>
	<text x="3487.65" y="947.58" style="font-family:'Helvetica';font-size:57.54px;fill:#000000">4-high (5)</text>
	<text x="3487.65" y="505.53" style="font-family:'Helvetica';font-size:57.54px;fill:#000000">5-very high (5)</text>
	<text x="164.09" y="2624.51" style="font-family:'Helvetica';font-size:66.21px;fill:#000000" text-anchor="middle">Test A</text>
	<text x="3465.50" y="2624.51" style="font-family:'Helvetica';font-size:66.21px;fill:#000000" text-anchor="middle">Test B</text>
	<text x="118.06" y="2737.89" style="font-family:'Helvetica';font-size:79.94px;fill:#000000">N = 26</text>
	<text x="1979.88" y="178.47" style="font-family:'Helvetica';font-size:86.38px;fill:#1E2D53" text-anchor="middle">Alluvial plot of results of Test A vs Test B.</text>
</svg>
